<svg viewBox="0 0 1024 1024" xmlns="http://www.w3.org/2000/svg" width="200" height="200"><defs><style/></defs><path d="M345.6 496c-11.2 0-19.2 9.6-19.2 19.2v16c0 11.2 9.6 19.2 19.2 19.2s19.2-9.6 19.2-19.2v-16c0-11.2-8-19.2-19.2-19.2zm332.8-9.6c-11.2 0-19.2 9.6-19.2 19.2v32c0 11.2 9.6 19.2 19.2 19.2s19.2-9.6 19.2-19.2v-32c1.6-11.2-8-19.2-19.2-19.2zm0 128c-11.2 0-19.2 9.6-19.2 19.2v16c0 11.2 9.6 19.2 19.2 19.2s19.2-9.6 19.2-19.2v-16c1.6-11.2-8-19.2-19.2-19.2zm0-240c-11.2 0-19.2 9.6-19.2 19.2v16c0 11.2 9.6 19.2 19.2 19.2s19.2-9.6 19.2-19.2v-16c1.6-11.2-8-19.2-19.2-19.2zM345.6 368c-11.2 0-19.2 9.6-19.2 19.2v32c0 11.2 9.6 19.2 19.2 19.2s19.2-9.6 19.2-19.2v-32c0-11.2-8-19.2-19.2-19.2zm0 240c-11.2 0-19.2 9.6-19.2 19.2v32c0 11.2 9.6 19.2 19.2 19.2s19.2-9.6 19.2-19.2v-32c0-11.2-8-19.2-19.2-19.2z"/><path d="M736 227.2H288c-28.8 0-52.8 24-52.8 52.8v462.4c0 28.8 24 52.8 52.8 52.8h448c28.8 0 52.8-24 52.8-52.8V280c-1.6-28.8-24-52.8-52.8-52.8zM748.8 744c0 6.4-6.4 12.8-12.8 12.8h-36.8v-9.6c0-11.2-9.6-19.2-19.2-19.2s-19.2 9.6-19.2 19.2v9.6H366.4c0-11.2-9.6-19.2-19.2-19.2s-19.2 9.6-19.2 19.2h-40c-6.4 0-12.8-6.4-12.8-12.8V280c0-6.4 6.4-12.8 12.8-12.8h38.4c-1.6 3.2-1.6 4.8-1.6 8v16c0 11.2 9.6 19.2 19.2 19.2s19.2-9.6 19.2-19.2v-16c0-3.2 0-4.8-1.6-8h296v30.4c0 11.2 9.6 19.2 19.2 19.2s19.2-9.6 19.2-19.2v-30.4h40c6.4 0 12.8 6.4 12.8 12.8z"/></svg>