<svg viewBox="0 0 1024 1024" xmlns="http://www.w3.org/2000/svg" width="200" height="200"><defs><style/></defs><path d="M441.6 220.8H264c-24 0-43.2 19.2-43.2 43.2v177.6c0 24 19.2 43.2 43.2 43.2h177.6c24 0 43.2-19.2 43.2-43.2V262.4c0-22.4-19.2-41.6-43.2-41.6zm3.2 220.8c0 1.6-1.6 3.2-3.2 3.2H264c-1.6 0-3.2-1.6-3.2-3.2V262.4c0-1.6 1.6-3.2 3.2-3.2h177.6c1.6 0 3.2 1.6 3.2 3.2v179.2zm316.8-220.8H584c-24 0-43.2 19.2-43.2 43.2v177.6c0 24 19.2 43.2 43.2 43.2h177.6c24 0 43.2-19.2 43.2-43.2V262.4c0-22.4-19.2-41.6-43.2-41.6zm3.2 220.8c0 1.6-1.6 3.2-3.2 3.2H584c-1.6 0-3.2-1.6-3.2-3.2V262.4c0-1.6 1.6-3.2 3.2-3.2h177.6c1.6 0 3.2 1.6 3.2 3.2v179.2zm-323.2 99.2H264c-24 0-43.2 19.2-43.2 43.2v177.6c0 24 19.2 43.2 43.2 43.2h177.6c24 0 43.2-19.2 43.2-43.2V582.4c0-22.4-19.2-41.6-43.2-41.6zm3.2 220.8c0 1.6-1.6 3.2-3.2 3.2H264c-1.6 0-3.2-1.6-3.2-3.2V582.4c0-1.6 1.6-3.2 3.2-3.2h177.6c1.6 0 3.2 1.6 3.2 3.2v179.2zM672 540.8c-72 0-131.2 59.2-131.2 131.2S600 803.2 672 803.2 803.2 744 803.2 672 745.6 540.8 672 540.8zm0 224c-51.2 0-92.8-41.6-92.8-92.8s41.6-92.8 92.8-92.8 92.8 41.6 92.8 92.8-41.6 92.8-92.8 92.8z"/></svg>