<svg viewBox="0 0 1024 1024" xmlns="http://www.w3.org/2000/svg" width="200" height="200"><defs><style/></defs><path d="M224 780.8h576v40H224zm574.4-118.4c0-33.6-27.2-60.8-60.8-60.8H620.8l-40-179.2c30.4-22.4 48-56 48-94.4 0-64-52.8-115.2-115.2-115.2S398.4 265.6 398.4 328c0 36.8 17.6 72 48 94.4l-40 179.2H288c-33.6 0-60.8 27.2-60.8 60.8V744h571.2v-81.6zm-40 41.6H267.2v-41.6c0-11.2 9.6-20.8 20.8-20.8h148.8l52.8-240-12.8-6.4c-24-12.8-40-38.4-40-67.2 0-41.6 33.6-76.8 76.8-76.8s76.8 33.6 76.8 76.8c0 27.2-16 52.8-40 67.2l-12.8 6.4 52.8 240h148.8c11.2 0 20.8 9.6 20.8 20.8V704z"/></svg>