<svg viewBox="0 0 1024 1024" xmlns="http://www.w3.org/2000/svg" width="200" height="200"><defs><style/></defs><path d="M336 512a32 32 0 1 0 64 0 32 32 0 1 0-64 0zm144 0a32 32 0 1 0 64 0 32 32 0 1 0-64 0zm144 0a32 32 0 1 0 64 0 32 32 0 1 0-64 0zM464 835.2l8-25.6h46.4l8 25.6h28.8L512 708.8h-30.4l-44.8 126.4H464zm33.6-97.6l16 49.6h-32l16-49.6zm75.2-28.8v78.4c0 12.8 1.6 24 6.4 32 8 14.4 22.4 20.8 44.8 20.8s36.8-6.4 44.8-20.8c4.8-8 6.4-17.6 6.4-32v-78.4H648v78.4c0 8-1.6 14.4-3.2 19.2-3.2 6.4-9.6 9.6-20.8 9.6-11.2 0-17.6-3.2-20.8-11.2-1.6-3.2-3.2-9.6-3.2-19.2v-78.4h-27.2zm180.8 126.4v-104H792v-22.4H689.6v22.4H728v104zM860.8 704c-17.6 0-32 4.8-41.6 14.4-12.8 11.2-19.2 28.8-19.2 52.8 0 22.4 6.4 40 19.2 52.8 9.6 9.6 24 14.4 41.6 14.4s32-4.8 41.6-14.4c12.8-12.8 19.2-28.8 19.2-52.8 0-24-6.4-40-19.2-52.8-9.6-9.6-24-14.4-41.6-14.4zm25.6 100.8c-6.4 6.4-16 11.2-25.6 11.2s-19.2-3.2-25.6-11.2c-6.4-8-9.6-19.2-9.6-33.6 0-14.4 3.2-25.6 9.6-33.6 6.4-8 14.4-11.2 25.6-11.2s19.2 3.2 25.6 11.2c6.4 8 9.6 19.2 9.6 33.6-1.6 14.4-4.8 25.6-9.6 33.6z"/><path d="M352 784c11.2 6.4 22.4 11.2 33.6 17.6v-44.8c-6.4-3.2-12.8-6.4-19.2-11.2-3.2-1.6-6.4-3.2-11.2-3.2-1.6 0-3.2 0-6.4 1.6l-104 32 33.6-105.6c1.6-4.8 1.6-11.2-1.6-16-25.6-43.2-38.4-91.2-38.4-140.8 0-152 123.2-275.2 275.2-275.2S788.8 360 788.8 512c0 52.8-14.4 102.4-41.6 144h46.4c22.4-43.2 35.2-92.8 35.2-144 0-174.4-142.4-316.8-316.8-316.8S196.8 337.6 196.8 512c0 54.4 14.4 107.2 40 153.6l-30.4 97.6-22.4 72 72-22.4 96-28.8z"/></svg>