<svg class="icon" viewBox="0 0 1024 1024" xmlns="http://www.w3.org/2000/svg" width="200" height="200"><defs><style/></defs><path d="M969.143 548.571q0 14.858-10.857 25.715t-25.715 10.857h-128q0 97.714-38.285 165.714l118.857 119.429Q896 881.143 896 896t-10.857 25.714q-10.286 10.857-25.714 10.857t-25.715-10.857L720.571 809.143Q717.714 812 712 816.57t-24 16.286-37.143 20.857T604 870.286t-55.429 7.428v-512H475.43v512q-29.143 0-58-7.714t-49.715-18.857T330 828.857t-24.857-18.571l-8.572-8L192 920.57q-11.429 12-27.429 12-13.714 0-24.571-9.142-10.857-10.286-11.714-25.429t8.857-26.571L252.57 741.714q-33.142-65.143-33.142-156.571h-128q-14.858 0-25.715-10.857T54.857 548.57t10.857-25.714T91.43 512h128V344l-98.858-98.857q-10.857-10.857-10.857-25.714t10.857-25.715 25.715-10.857T172 193.714l98.857 98.857h482.286L852 193.714q10.857-10.857 25.714-10.857t25.715 10.857 10.857 25.715-10.857 25.714L804.57 344v168h128q14.858 0 25.715 10.857t10.857 25.714zM694.857 219.43H329.143q0-76 53.428-129.429T512 36.571 641.429 90t53.428 129.429z"/></svg>