<svg viewBox="0 0 1024 1024" xmlns="http://www.w3.org/2000/svg" width="200" height="200"><defs><style/></defs><path d="M512 408V304h1.6c100.8 0 184 83.2 184 184 0 11.2 9.6 19.2 19.2 19.2S736 497.6 736 488c0-123.2-100.8-224-224-224h-1.6c-3.2-12.8-14.4-24-30.4-24H272c-16 0-30.4 14.4-30.4 30.4V408c0 16 14.4 30.4 30.4 30.4h208c17.6 0 32-14.4 32-30.4zm-40-9.6H280V280h190.4v118.4z"/><path d="M752 528H544c-16 0-30.4 14.4-30.4 30.4V672c-99.2 0-179.2-78.4-184-176h112c11.2 0 19.2-9.6 19.2-19.2s-9.6-19.2-19.2-19.2H312c-11.2 0-19.2 9.6-19.2 19.2v1.6c-1.6 3.2-3.2 6.4-3.2 9.6 0 123.2 100.8 224 224 224 1.6 0 3.2 0 4.8-1.6 4.8 9.6 14.4 16 25.6 16h208c16 0 30.4-14.4 30.4-30.4V558.4c1.6-16-12.8-30.4-30.4-30.4zm-8 158.4H552V568h190.4v118.4zM712 744H582.4c-11.2 0-19.2 9.6-19.2 19.2s9.6 19.2 19.2 19.2H712c11.2 0 19.2-9.6 19.2-19.2s-8-19.2-19.2-19.2z"/></svg>