<svg viewBox="0 0 1024 1024" xmlns="http://www.w3.org/2000/svg" width="200" height="200"><defs><style/></defs><path d="M510.4 510.4c49.6 0 89.6-48 89.6-105.6 0-57.6-40-105.6-89.6-105.6-49.6 0-89.6 48-89.6 105.6 0 59.2 40 105.6 89.6 105.6zm0-169.6c27.2 0 49.6 28.8 49.6 65.6S537.6 472 510.4 472c-27.2 0-49.6-28.8-49.6-65.6s22.4-65.6 49.6-65.6zm0 209.6c-81.6 0-150.4 28.8-184 78.4-11.2 17.6-12.8 40-3.2 59.2 9.6 19.2 28.8 30.4 49.6 30.4h273.6c20.8 0 40-11.2 49.6-30.4 9.6-19.2 9.6-41.6-3.2-59.2-32-49.6-100.8-78.4-182.4-78.4zm152 118.4c-1.6 3.2-6.4 9.6-14.4 9.6H374.4c-9.6 0-12.8-6.4-14.4-9.6-1.6-3.2-4.8-9.6 1.6-17.6 25.6-36.8 83.2-60.8 150.4-60.8s126.4 24 150.4 60.8c3.2 8 1.6 14.4 0 17.6z"/><path d="M724.8 212.8h-424c-48 0-88 40-88 88v424c0 48 40 88 88 88h424c48 0 88-40 88-88v-424c0-49.6-40-88-88-88zm48 512c0 25.6-20.8 48-48 48h-424c-25.6 0-48-20.8-48-48v-424c0-25.6 20.8-48 48-48h424c25.6 0 48 20.8 48 48v424z"/></svg>