<svg viewBox="0 0 1024 1024" xmlns="http://www.w3.org/2000/svg" width="200" height="200"><defs><style/></defs><path d="M707.2 560c-1.6 0-3.2 1.6-3.2 3.2-4.8 4.8-6.4 11.2-6.4 17.6v4.8c0 1.6 0 3.2 1.6 4.8s1.6 3.2 1.6 4.8c0 1.6 1.6 3.2 3.2 3.2l3.2 3.2c1.6 1.6 3.2 1.6 4.8 1.6 1.6 0 3.2 1.6 4.8 1.6h9.6c1.6 0 3.2 0 4.8-1.6 1.6 0 3.2-1.6 4.8-1.6 1.6 0 3.2-1.6 3.2-3.2l3.2-3.2c1.6-1.6 1.6-3.2 1.6-4.8s1.6-3.2 1.6-4.8v-4.8c0-6.4-3.2-12.8-6.4-17.6-3.2-1.6-3.2-1.6-4.8-3.2-1.6-1.6-3.2-1.6-4.8-1.6-1.6 0-3.2-1.6-4.8-1.6h-9.6c-1.6 0-3.2 0-4.8 1.6s-1.6 1.6-3.2 1.6zM348.8 416c-9.6 9.6-9.6 24 0 33.6 4.8 4.8 11.2 6.4 17.6 6.4s12.8-1.6 17.6-6.4c9.6-9.6 9.6-24 0-33.6-11.2-9.6-25.6-9.6-35.2 0zM512 348.8c-12.8 0-24 11.2-24 24s11.2 24 24 24 24-11.2 24-24c0-14.4-9.6-24-24-24zM676.8 416c-9.6-9.6-24-9.6-33.6 0-9.6 9.6-9.6 24 0 33.6 4.8 4.8 11.2 6.4 17.6 6.4 6.4 0 12.8-1.6 17.6-6.4 8-9.6 8-24-1.6-33.6zM326.4 571.2c0-1.6-1.6-3.2-1.6-3.2-1.6-1.6-1.6-3.2-3.2-3.2-4.8-6.4-14.4-8-22.4-6.4-1.6 0-3.2 0-4.8 1.6-1.6 0-3.2 1.6-4.8 1.6-1.6 1.6-3.2 1.6-3.2 3.2l-3.2 3.2c-1.6 1.6-1.6 3.2-1.6 3.2 0 1.6-1.6 3.2-1.6 4.8v9.6c0 1.6 0 3.2 1.6 4.8s1.6 3.2 1.6 4.8c0 1.6 1.6 3.2 3.2 3.2 4.8 4.8 11.2 6.4 17.6 6.4 6.4 0 12.8-3.2 17.6-6.4l3.2-3.2c1.6-1.6 1.6-3.2 1.6-4.8s1.6-3.2 1.6-4.8V576c0-1.6 0-3.2-1.6-4.8z"/><path d="M512 256c-179.2 0-323.2 145.6-323.2 323.2 0 64 19.2 126.4 54.4 179.2l6.4 9.6h528l6.4-9.6c35.2-52.8 54.4-115.2 54.4-179.2C836.8 401.6 691.2 256 512 256zm243.2 472H568l105.6-88-25.6-30.4-142.4 120H270.4c-27.2-44.8-41.6-96-41.6-147.2 0-156.8 128-284.8 284.8-284.8s284.8 128 284.8 284.8c-1.6 49.6-16 100.8-43.2 145.6z"/></svg>