<svg viewBox="0 0 1024 1024" xmlns="http://www.w3.org/2000/svg" width="200" height="200"><defs><style/></defs><path d="M336 512a32 32 0 1 0 64 0 32 32 0 1 0-64 0zm144 0a32 32 0 1 0 64 0 32 32 0 1 0-64 0zm144 0a32 32 0 1 0 64 0 32 32 0 1 0-64 0z"/><path d="M512 196.8c-174.4 0-316.8 142.4-316.8 316.8 0 54.4 14.4 107.2 40 153.6l-30.4 97.6-22.4 72 72-22.4 96-30.4c11.2 6.4 22.4 11.2 33.6 17.6v-44.8c-6.4-3.2-12.8-6.4-19.2-11.2-3.2-1.6-6.4-3.2-11.2-3.2-1.6 0-3.2 0-6.4 1.6l-104 32 33.6-105.6c1.6-4.8 1.6-11.2-1.6-16-25.6-43.2-38.4-91.2-38.4-140.8 0-152 123.2-275.2 275.2-275.2S788.8 360 788.8 512c0 52.8-14.4 102.4-41.6 144h46.4c22.4-43.2 35.2-92.8 35.2-144 0-174.4-142.4-315.2-316.8-315.2z"/><path d="M774.4 764.8l-6.4 8-24-49.6-35.2-1.6-19.2 35.2h-27.2L644.8 768l-17.6 36.8L592 683.2l-36.8-4.8L497.6 784l-9.6-17.6-17.6-9.6H432v40h25.6l20.8 40h35.2l52.8-97.6 38.4 131.2 36.8 1.6 33.6-75.2h25.6l17.6-11.2 6.4-11.2 22.4 46.4 33.6 3.2 20.8-27.2H816v-40h-25.6z"/></svg>