<svg viewBox="0 0 1024 1024" xmlns="http://www.w3.org/2000/svg" width="200" height="200"><defs><style/></defs><path d="M324.8 360c0 76.8 52.8 140.8 118.4 140.8 65.6 0 118.4-62.4 118.4-140.8s-52.8-140.8-118.4-140.8c-64 1.6-118.4 64-118.4 140.8zm198.4 0c0 54.4-35.2 99.2-78.4 99.2s-78.4-44.8-78.4-99.2 35.2-99.2 78.4-99.2 78.4 44.8 78.4 99.2zm142.4 430.4c17.6 0 33.6-8 43.2-22.4 9.6-12.8 12.8-30.4 8-46.4-27.2-91.2-134.4-150.4-273.6-150.4-137.6 0-244.8 59.2-273.6 150.4-4.8 16-1.6 32 8 46.4 9.6 12.8 25.6 22.4 43.2 22.4h444.8zm-456-56c22.4-73.6 116.8-121.6 235.2-121.6 118.4 0 212.8 49.6 235.2 121.6 1.6 4.8 0 9.6-1.6 11.2-3.2 3.2-6.4 4.8-11.2 4.8H222.4c-4.8 0-8-1.6-11.2-4.8-1.6-1.6-3.2-6.4-1.6-11.2zm385.6-273.6v40c65.6 0 118.4-62.4 118.4-140.8s-52.8-140.8-118.4-140.8v40c43.2 0 78.4 44.8 78.4 99.2s-35.2 102.4-78.4 102.4zm123.2 126.4l-6.4 40c67.2 11.2 115.2 64 126.4 108.8 1.6 4.8 0 8-3.2 11.2-1.6 1.6-4.8 4.8-9.6 4.8h-64v40h64c16 0 32-8 41.6-20.8 9.6-12.8 14.4-30.4 9.6-46.4-16-67.2-83.2-126.4-158.4-137.6z"/></svg>