<svg viewBox="0 0 1024 1024" xmlns="http://www.w3.org/2000/svg" width="200" height="200"><defs><style/></defs><path d="M510.4 702.4h14.4c8-3.2 201.6-75.2 201.6-251.2 0-64-51.2-115.2-115.2-115.2-38.4 0-72 17.6-92.8 46.4C496 355.2 460.8 336 424 336c-64 0-115.2 51.2-115.2 115.2 0 176 192 248 201.6 251.2zM424 376c35.2 0 65.6 24 73.6 59.2H536c8-35.2 38.4-59.2 73.6-59.2 41.6 0 75.2 33.6 75.2 75.2 0 131.2-136 196.8-168 209.6-32-14.4-168-80-168-209.6 0-40 33.6-75.2 75.2-75.2z"/><path d="M300.8 812.8h424c48 0 88-40 88-88v-424c0-48-40-88-88-88h-424c-48 0-88 40-88 88v424c0 48 38.4 88 88 88zm-48-512c0-25.6 20.8-48 48-48h424c25.6 0 48 20.8 48 48v424c0 25.6-20.8 48-48 48h-424c-25.6 0-48-20.8-48-48v-424z"/></svg>