<svg viewBox="0 0 1024 1024" xmlns="http://www.w3.org/2000/svg" width="200" height="200"><defs><style/></defs><path d="M364.8 459.2h64l11.2 35.2h40L417.6 320H376l-62.4 176H352l12.8-36.8zm32-99.2l22.4 68.8h-44.8l22.4-68.8z"/><path d="M724.8 212.8H299.2c-48 0-88 40-88 88v424c0 48 40 88 88 88h424c48 0 88-40 88-88V299.2c1.6-48-38.4-86.4-86.4-86.4zm48 512c0 25.6-20.8 48-48 48H299.2c-25.6 0-48-20.8-48-48V299.2c0-25.6 20.8-48 48-48h424c25.6 0 48 20.8 48 48v425.6z"/><path d="M697.6 686.4v-72c0-14.4-4.8-25.6-16-30.4-11.2-4.8-22.4-8-36.8-8-20.8 0-35.2 4.8-44.8 16-4.8 6.4-8 16-9.6 27.2h32c0-4.8 1.6-8 4.8-11.2 3.2-3.2 8-6.4 16-6.4 6.4 0 12.8 1.6 16 3.2 3.2 1.6 4.8 4.8 4.8 11.2 0 4.8-1.6 8-6.4 9.6-3.2 1.6-6.4 1.6-12.8 3.2l-11.2 1.6c-12.8 1.6-22.4 4.8-28.8 8-11.2 6.4-17.6 17.6-17.6 33.6 0 11.2 3.2 20.8 11.2 27.2 8 6.4 16 9.6 28.8 9.6 9.6 0 17.6-1.6 24-6.4 6.4-3.2 11.2-8 16-12.8 0 3.2 0 4.8 1.6 8 0 1.6 1.6 4.8 1.6 6.4H704v-4.8c-1.6-1.6-3.2-1.6-4.8-3.2s-1.6-4.8-1.6-9.6zm-33.6-32c0 11.2-3.2 19.2-9.6 22.4-6.4 4.8-12.8 6.4-19.2 6.4-4.8 0-8-1.6-11.2-3.2-3.2-3.2-4.8-6.4-4.8-12.8s3.2-11.2 8-14.4c3.2-1.6 8-3.2 14.4-4.8l8-1.6c3.2 0 6.4-1.6 8-1.6 1.6-1.6 4.8-1.6 6.4-3.2v12.8zm-188.8-16l30.4 30.4H480c-64 0-115.2-52.8-115.2-115.2h-24c0 76.8 62.4 140.8 140.8 140.8h83.2L494.4 624l-19.2 14.4zm80-252.8l-30.4-30.4H544c64 0 115.2 52.8 115.2 115.2h24c0-76.8-62.4-140.8-140.8-140.8h-76.8L536 400l19.2-14.4z"/></svg>