<svg viewBox="0 0 1024 1024" xmlns="http://www.w3.org/2000/svg" width="200" height="200"><defs><style/></defs><path d="M336 512a32 32 0 1 0 64 0 32 32 0 1 0-64 0zm144 0a32 32 0 1 0 64 0 32 32 0 1 0-64 0zm144 0a32 32 0 1 0 64 0 32 32 0 1 0-64 0zm144 96c-88 0-160 72-160 160s72 160 160 160 160-72 160-160-70.4-160-160-160zm0 288c-70.4 0-128-57.6-128-128s57.6-128 128-128 128 57.6 128 128-57.6 128-128 128z"/><path d="M756.8 688h24v96h-24zM352 784c49.6 28.8 104 44.8 161.6 44.8 16 0 32-1.6 48-4.8v-40c-16 3.2-32 4.8-48 4.8-52.8 0-102.4-14.4-147.2-43.2-3.2-1.6-6.4-3.2-11.2-3.2-1.6 0-3.2 0-6.4 1.6l-104 32 33.6-105.6c1.6-4.8 1.6-11.2-1.6-16-25.6-43.2-38.4-91.2-38.4-140.8 0-152 123.2-275.2 275.2-275.2S788.8 360 788.8 512c0 16-1.6 32-4.8 48h40c3.2-16 4.8-32 4.8-48 0-174.4-142.4-316.8-316.8-316.8S196.8 337.6 196.8 512c0 54.4 14.4 107.2 40 153.6l-30.4 97.6-22.4 72 72-22.4 96-28.8zm400 48a16 16 0 1 0 32 0 16 16 0 1 0-32 0z"/></svg>