<svg viewBox="0 0 1024 1024" xmlns="http://www.w3.org/2000/svg" width="200" height="200"><path d="M184 836.8l72-22.4 96-30.4c49.6 28.8 104 44.8 161.6 44.8 174.4 0 316.8-142.4 316.8-316.8S686.4 196.8 512 196.8 196.8 337.6 196.8 512c0 54.4 14.4 107.2 40 153.6l-30.4 97.6-22.4 73.6zM236.8 512c0-152 123.2-275.2 275.2-275.2S788.8 360 788.8 512 664 788.8 512 788.8c-52.8 0-102.4-14.4-147.2-43.2-3.2-1.6-6.4-3.2-11.2-3.2-1.6 0-3.2 0-6.4 1.6l-104 32 33.6-105.6c1.6-4.8 1.6-11.2-1.6-16-25.6-43.2-38.4-92.8-38.4-142.4z"/><path d="M336 512a32 32 0 1 0 64 0 32 32 0 1 0-64 0zm144 0a32 32 0 1 0 64 0 32 32 0 1 0-64 0zm144 0a32 32 0 1 0 64 0 32 32 0 1 0-64 0z"/></svg>