<svg viewBox="0 0 1024 1024" xmlns="http://www.w3.org/2000/svg" width="200" height="200"><defs><style/></defs><path d="M574.4 824c22.4 8 43.2 9.6 62.4 9.6 30.4 0 54.4-8 68.8-16 35.2-20.8 41.6-49.6 41.6-68.8 0-20.8-9.6-44.8-27.2-75.2-14.4-25.6-59.2-102.4-132.8-59.2 0 0-22.4 12.8-40 25.6-22.4-24-49.6-57.6-73.6-97.6-22.4-40-38.4-80-48-112 19.2-8 41.6-20.8 41.6-20.8 35.2-20.8 41.6-49.6 41.6-68.8 0-20.8-9.6-44.8-27.2-75.2-17.6-30.4-33.6-49.6-52.8-60.8-17.6-11.2-44.8-19.2-80 1.6-6.4 4.8-171.2 102.4 4.8 406.4C422.4 726.4 496 798.4 574.4 824zM371.2 238.4c6.4-3.2 14.4-8 22.4-8 14.4 0 32 11.2 56 52.8 35.2 62.4 19.2 78.4 0 89.6-11.2 6.4-43.2 22.4-51.2 25.6-4.8 1.6-9.6 4.8-12.8 9.6s-3.2 11.2-1.6 16c11.2 35.2 27.2 86.4 57.6 137.6 28.8 51.2 65.6 91.2 91.2 118.4 3.2 3.2 9.6 6.4 14.4 6.4 6.4 0 11.2-1.6 14.4-6.4 4.8-4.8 35.2-25.6 46.4-32 19.2-11.2 41.6-17.6 78.4 44.8 14.4 24 20.8 43.2 20.8 56 0 9.6-1.6 22.4-20.8 33.6-1.6 1.6-40 22.4-99.2 3.2-67.2-22.4-136-89.6-196.8-195.2-155.2-268.8-19.2-350.4-19.2-352z"/></svg>