<svg viewBox="0 0 1024 1024" xmlns="http://www.w3.org/2000/svg" width="200" height="200"><defs><style/></defs><path d="M392.624 402.544l101.52-217.472L530.384 202l-101.52 217.456zM493.76 823.408l101.504-217.456 36.24 16.912-101.52 217.472zM267.152 292.576l37.6-13.664 82 225.552-37.6 13.664zM638.64 519.408l37.6-13.664 82.016 225.552-37.6 13.664zm-454.192 11.216l16.928-36.256 217.488 101.504-16.928 36.24zM605.984 428l16.928-36.24L840.4 493.248l-16.928 36.256zM278.672 719.408l225.552-82.032 13.664 37.6-225.552 82.032zM506 349.472l225.552-82 13.68 37.584-225.552 82.016z"/></svg>