<svg viewBox="0 0 1024 1024" xmlns="http://www.w3.org/2000/svg" width="200" height="200"><defs><style/></defs><path d="M379.2 348.8c0 84.8 59.2 155.2 131.2 155.2s131.2-68.8 131.2-155.2-59.2-155.2-131.2-155.2S379.2 264 379.2 348.8zm222.4 0c0 62.4-40 115.2-91.2 115.2s-91.2-51.2-91.2-115.2 40-115.2 91.2-115.2 91.2 52.8 91.2 115.2zM614.4 584c-9.6-1.6-17.6-3.2-27.2-4.8-24-3.2-49.6-6.4-75.2-6.4-153.6 0-273.6 65.6-304 168-4.8 17.6-1.6 35.2 9.6 49.6 11.2 14.4 28.8 24 46.4 24h323.2c11.2 0 19.2-9.6 19.2-19.2s-9.6-19.2-19.2-19.2H262.4c-6.4 0-11.2-3.2-14.4-6.4-1.6-3.2-4.8-8-3.2-14.4C270.4 670.4 374.4 616 510.4 616c24 0 46.4 1.6 68.8 4.8 8 1.6 17.6 3.2 25.6 4.8 11.2 3.2 20.8-4.8 24-16 3.2-12.8-4.8-22.4-14.4-25.6zM872 710.4l32-17.6-36.8-62.4-32 17.6c-3.2 1.6-6.4 3.2-11.2 3.2-11.2 0-20.8-9.6-20.8-20.8V592h-72v36.8c0 12.8-9.6 20.8-20.8 20.8-3.2 0-6.4-1.6-11.2-3.2l-32-17.6-36.8 62.4 32 17.6c14.4 8 14.4 28.8 0 36.8l-32 17.6 36.8 62.4 32-17.6c3.2-1.6 6.4-3.2 11.2-3.2 11.2 0 20.8 9.6 20.8 20.8V864h72v-36.8c0-12.8 9.6-20.8 20.8-20.8 3.2 0 6.4 1.6 11.2 3.2l32 17.6 36.8-62.4-32-17.6c-12.8-8-12.8-28.8 0-36.8zM836.8 768c-3.2 0-6.4-1.6-11.2-1.6-25.6 0-48 16-57.6 40-8-24-30.4-40-57.6-40-3.2 0-6.4 0-11.2 1.6 9.6-11.2 14.4-24 14.4-38.4 0-14.4-4.8-28.8-14.4-38.4 3.2 0 6.4 1.6 11.2 1.6 25.6 0 48-16 57.6-40 8 24 30.4 40 57.6 40 3.2 0 6.4 0 11.2-1.6-9.6 11.2-14.4 24-14.4 38.4 0 12.8 4.8 27.2 14.4 38.4z"/></svg>