<svg viewBox="0 0 1024 1024" xmlns="http://www.w3.org/2000/svg" width="200" height="200"><defs><style/></defs><path d="M510.4 504c72 0 131.2-68.8 131.2-155.2s-59.2-155.2-131.2-155.2-131.2 68.8-131.2 155.2S438.4 504 510.4 504zm0-268.8c49.6 0 91.2 51.2 91.2 115.2S560 464 510.4 464s-91.2-51.2-91.2-115.2 41.6-113.6 91.2-113.6zm-248 579.2h360c11.2 0 19.2-9.6 19.2-19.2S632 776 622.4 776h-360c-6.4 0-11.2-3.2-14.4-6.4-1.6-3.2-4.8-8-3.2-14.4C270.4 670.4 374.4 616 510.4 616c24 0 46.4 1.6 68.8 4.8 8 1.6 17.6 3.2 25.6 4.8 11.2 3.2 20.8-4.8 24-16 1.6-11.2-4.8-20.8-16-24-9.6-1.6-17.6-3.2-27.2-4.8-24-3.2-49.6-6.4-75.2-6.4-153.6 0-273.6 65.6-304 168-4.8 17.6-1.6 35.2 9.6 49.6 11.2 12.8 27.2 22.4 46.4 22.4zm556.8-65.6c-1.6-3.2-1.6-6.4 0-9.6l56-68.8c9.6-11.2 11.2-27.2 4.8-41.6-6.4-14.4-20.8-22.4-35.2-22.4H691.2c-16 0-28.8 8-35.2 22.4-6.4 14.4-4.8 30.4 4.8 41.6l56 68.8c1.6 3.2 1.6 6.4 0 9.6l-56 68.8c-9.6 11.2-11.2 27.2-4.8 41.6 6.4 14.4 20.8 22.4 35.2 22.4h153.6c16 0 28.8-8 35.2-22.4 6.4-14.4 4.8-30.4-4.8-41.6l-56-68.8zM692.8 646.4h152l-56 68.8c-11.2 14.4-12.8 33.6-6.4 49.6h-27.2c8-16 4.8-35.2-6.4-49.6l-56-68.8zm0 196.8l44.8-56H800l44.8 54.4-152 1.6z"/></svg>