<svg viewBox="0 0 1024 1024" xmlns="http://www.w3.org/2000/svg" width="200" height="200"><defs><style/></defs><path d="M718.4 305.6c-54.4-54.4-128-84.8-206.4-84.8s-152 30.4-206.4 84.8c-94.4 94.4-112 238.4-44.8 353.6V744c0 33.6 27.2 60.8 60.8 60.8s60.8-27.2 60.8-60.8V600c0-33.6-27.2-60.8-60.8-60.8-22.4 0-43.2 12.8-52.8 32C248 488 272 396.8 336 332.8c48-48 110.4-73.6 177.6-73.6s131.2 25.6 177.6 73.6c64 64 88 153.6 67.2 238.4-9.6-19.2-30.4-32-52.8-32-33.6 0-60.8 27.2-60.8 60.8v144c0 14.4 6.4 28.8 14.4 40-30.4 22.4-68.8 27.2-99.2 27.2-3.2-24-22.4-41.6-48-41.6-27.2 0-48 20.8-48 48s20.8 48 48 48c12.8 0 25.6-4.8 33.6-14.4h17.6c41.6 0 94.4-9.6 134.4-46.4h6.4c33.6 0 60.8-27.2 60.8-60.8v-84.8C832 544 812.8 400 718.4 305.6zM300.8 600c0-11.2 9.6-19.2 19.2-19.2s19.2 9.6 19.2 19.2v144c0 11.2-9.6 19.2-19.2 19.2s-19.2-9.6-19.2-19.2V600zm424 144c0 11.2-9.6 19.2-19.2 19.2s-19.2-9.6-19.2-19.2V600c0-11.2 9.6-19.2 19.2-19.2s19.2 9.6 19.2 19.2v144z"/></svg>