<svg viewBox="0 0 1024 1024" xmlns="http://www.w3.org/2000/svg" width="200" height="200"><defs><style/></defs><path d="M304 598.4c1.6 3.2 4.8 14.4-4.8 25.6L232 691.2l102.4 102.4 67.2-67.2c9.6-9.6 20.8-6.4 25.6-4.8 3.2 1.6 14.4 6.4 14.4 20.8v94.4h144v-94.4c0-14.4 11.2-19.2 14.4-20.8 3.2-1.6 14.4-4.8 25.6 4.8l67.2 67.2 102.4-102.4-68.8-67.2c-9.6-9.6-6.4-20.8-4.8-25.6S728 584 742.4 584h94.4V440h-94.4c-14.4 0-19.2-11.2-20.8-14.4s-4.8-14.4 4.8-25.6l67.2-67.2-102.4-102.4-67.2 68.8c-9.6 9.6-20.8 6.4-25.6 4.8-3.2-1.6-14.4-6.4-14.4-20.8v-94.4H440v94.4c0 14.4-11.2 19.2-14.4 20.8-3.2 1.6-14.4 4.8-25.6-4.8L332.8 232 230.4 334.4l67.2 67.2c9.6 9.6 6.4 20.8 4.8 25.6-1.6 3.2-6.4 14.4-20.8 14.4h-94.4v144h94.4c16-1.6 20.8 9.6 22.4 12.8zM228.8 480h54.4c25.6 0 48-14.4 57.6-38.4 9.6-24 4.8-49.6-14.4-68.8L288 334.4l44.8-44.8 38.4 38.4c17.6 17.6 44.8 24 68.8 14.4s38.4-32 38.4-57.6v-54.4h64v54.4c0 25.6 14.4 48 38.4 57.6 24 9.6 49.6 4.8 68.8-14.4l38.4-38.4 44.8 44.8-38.4 38.4c-17.6 17.6-24 44.8-14.4 68.8s32 38.4 57.6 38.4H792v64h-54.4c-25.6 0-48 14.4-57.6 38.4-9.6 24-4.8 49.6 14.4 68.8l38.4 38.4-41.6 46.4-38.4-38.4c-17.6-17.6-44.8-24-68.8-14.4s-38.4 32-38.4 57.6v54.4h-64v-54.4c0-25.6-14.4-48-38.4-57.6-24-9.6-49.6-4.8-68.8 14.4l-40 38.4-44.8-44.8 38.4-38.4c17.6-17.6 24-44.8 14.4-68.8s-32-38.4-57.6-38.4h-54.4V480z"/><path d="M512 600c48 0 88-40 88-88s-40-88-88-88-86.4 40-86.4 88 38.4 88 86.4 88zm0-136c25.6 0 48 20.8 48 48 0 25.6-20.8 48-48 48s-48-20.8-48-48c1.6-25.6 22.4-48 48-48z"/></svg>