<svg viewBox="0 0 1024 1024" xmlns="http://www.w3.org/2000/svg" width="200" height="200"><defs><style/></defs><path d="M315.2 326.4L225.6 416c-25.6 25.6-40 59.2-40 96s14.4 70.4 40 96l89.6 89.6c6.4 6.4 14.4 9.6 24 9.6h499.2V316.8H339.2c-8 0-17.6 3.2-24 9.6zm483.2 30.4v312h-456l-88-88c-17.6-17.6-28.8-41.6-28.8-67.2s9.6-49.6 28.8-67.2l88-88h456z"/><path d="M361.6 574.4c35.2 0 62.4-28.8 62.4-62.4 0-35.2-28.8-62.4-62.4-62.4s-62.4 28.8-62.4 62.4c0 35.2 27.2 62.4 62.4 62.4zm0-84.8c12.8 0 22.4 9.6 22.4 22.4 0 12.8-9.6 22.4-22.4 22.4s-22.4-9.6-22.4-22.4c0-12.8 9.6-22.4 22.4-22.4zm112-91.2h273.6v40H473.6z"/></svg>